<svg width="45" height="45" viewBox="0 0 45 45" fill="none" xmlns="http://www.w3.org/2000/svg">
<path d="M23 43C14.7305 43 8 39.6352 8 35.4992V31.2988C8 33.2775 9.5255 34.9712 12.395 36.1998C15.7819 37.4802 19.3849 38.0915 23.0045 38C26.6212 38.0911 30.2211 37.4798 33.605 36.1998C36.4775 34.9712 37.9985 33.2745 38 31.2928V35.5037C38 39.6352 31.2725 43 23 43ZM23 35.4992C14.726 35.4992 8 32.1344 8 27.9985V23.7981C8 25.7768 9.5255 27.4704 12.395 28.6991C15.7819 29.9794 19.3849 30.5908 23.0045 30.4993C26.6212 30.5904 30.2211 29.979 33.605 28.6991C36.4775 27.4704 37.9985 25.7738 38 23.7921V28.003C38 32.1329 31.2725 35.4992 23 35.4992ZM23 27.9985C14.726 27.9985 8 24.6337 8 20.4977V16.2973C8 18.2775 9.5255 19.9727 12.395 21.1998C15.7819 22.4803 19.3849 23.0916 23.0045 23C26.6211 23.0906 30.221 22.4793 33.605 21.1998C36.4775 19.9712 37.9985 18.2745 38 16.2913V20.5023C38 24.6322 31.2725 27.9985 23 27.9985ZM23 20.4977C14.726 20.4977 8 17.1329 8 12.997V10.5007C8 6.36484 14.7305 3 23 3C31.2695 3 38 6.36484 38 10.5007V12.997C38 17.1314 31.274 20.4977 23 20.4977ZM20.582 13.1785H20.5505C20.518 13.1801 20.4863 13.189 20.4577 13.2046C20.4291 13.2202 20.4044 13.2421 20.3855 13.2685L19.6355 14.2556C19.6007 14.2987 19.5829 14.3529 19.5854 14.4082C19.5879 14.4635 19.6105 14.5159 19.649 14.5557C19.6745 14.5857 19.718 14.6292 19.781 14.6877C19.8889 14.7848 20.0021 14.876 20.12 14.9607C20.2919 15.0904 20.4729 15.2078 20.6615 15.3117C20.902 15.4418 21.1529 15.5517 21.4115 15.6403C21.7149 15.7477 22.0285 15.8236 22.3475 15.8668V17.1494C22.3482 17.2117 22.3729 17.2714 22.4165 17.3159C22.4379 17.338 22.4635 17.3555 22.4919 17.3674C22.5203 17.3793 22.5508 17.3852 22.5815 17.3849H23.573C23.6037 17.386 23.6343 17.3809 23.6629 17.3698C23.6915 17.3587 23.7176 17.3419 23.7395 17.3204C23.7624 17.2984 23.7804 17.2718 23.7923 17.2423C23.8042 17.2128 23.8097 17.1812 23.8085 17.1494V15.8668C24.5366 15.7634 25.206 15.4096 25.7015 14.8662C26.1817 14.3384 26.443 13.6475 26.432 12.934C26.4325 12.6998 26.4012 12.4667 26.339 12.2409C26.2836 12.0462 26.2061 11.8585 26.108 11.6814C26.002 11.5077 25.8711 11.3505 25.7195 11.2148C25.576 11.0846 25.4258 10.9619 25.2695 10.8473C25.0937 10.7293 24.9092 10.625 24.7175 10.5353C24.3422 10.3473 23.9548 10.1845 23.558 10.0477L23.357 9.9697L23.0435 9.84668L22.988 9.82268C22.88 9.77618 22.751 9.72067 22.5995 9.65016C22.4553 9.58767 22.3181 9.51024 22.19 9.41914C22.0885 9.34535 21.9918 9.26518 21.9005 9.17912C21.8084 9.09556 21.7353 8.99326 21.686 8.87909C21.6423 8.76623 21.6204 8.64608 21.6215 8.52505C21.6213 8.36364 21.6613 8.20473 21.7381 8.06273C21.8148 7.92074 21.9258 7.80017 22.061 7.71197C22.3968 7.48836 22.795 7.3775 23.198 7.39544C23.4105 7.3944 23.622 7.42318 23.8265 7.48095C24.0138 7.5284 24.1969 7.59111 24.374 7.66847C24.5212 7.73813 24.664 7.81679 24.8015 7.90399C24.9004 7.96372 24.9955 8.02934 25.0865 8.10051L25.1 8.10951C25.1495 8.14851 25.1825 8.17402 25.1945 8.18602C25.2359 8.22288 25.2891 8.24364 25.3445 8.24452C25.3609 8.24655 25.3776 8.24655 25.394 8.24452C25.4302 8.24206 25.465 8.23008 25.4951 8.20979C25.5251 8.1895 25.5492 8.16164 25.565 8.12901L26.165 7.05641C26.1938 7.01329 26.2058 6.96118 26.1989 6.90981C26.192 6.85845 26.1666 6.81137 26.1275 6.77738C26.0921 6.74165 26.0551 6.70761 26.0165 6.67537C25.9261 6.59839 25.8309 6.52724 25.7315 6.46235C25.5836 6.35848 25.4276 6.26667 25.265 6.18782C25.0586 6.09048 24.8455 6.00777 24.6275 5.94029C24.3645 5.85889 24.0942 5.80313 23.8205 5.77378V4.48365C23.8217 4.45189 23.8162 4.42022 23.8043 4.39075C23.7924 4.36127 23.7744 4.33465 23.7515 4.31263C23.7296 4.29116 23.7035 4.27437 23.6749 4.26328C23.6463 4.25219 23.6157 4.24703 23.585 4.24812H22.5935C22.5628 4.24782 22.5323 4.25379 22.5039 4.26565C22.4755 4.27752 22.4499 4.29503 22.4285 4.31713C22.3849 4.36165 22.3602 4.42132 22.3595 4.48365V5.80378C21.6476 5.92225 20.9928 6.26678 20.492 6.78638C20.0274 7.25999 19.7682 7.89761 19.7705 8.56106C19.7694 8.75395 19.7911 8.94629 19.835 9.13411C19.8722 9.30029 19.9224 9.46331 19.985 9.62166C20.0512 9.7759 20.139 9.91988 20.246 10.0492C20.3525 10.1812 20.4605 10.3012 20.5625 10.4077C20.6853 10.5216 20.8167 10.6259 20.9555 10.7198C21.131 10.8368 21.263 10.9178 21.3695 10.9763C21.5191 11.0619 21.6733 11.139 21.8315 11.2073C22.0385 11.3003 22.1885 11.3573 22.2815 11.3993L22.442 11.4638L22.4885 11.4833L22.7345 11.5824C22.9535 11.6679 23.1665 11.7564 23.3195 11.8224C23.4725 11.8884 23.6075 11.9544 23.8025 12.0579C23.9564 12.1298 24.1001 12.2216 24.23 12.3309C24.3267 12.4212 24.41 12.5247 24.4775 12.6385C24.5493 12.7554 24.5877 12.8898 24.5885 13.027C24.5971 13.2031 24.5602 13.3784 24.4814 13.536C24.4026 13.6937 24.2845 13.8283 24.1385 13.9271C23.8308 14.141 23.4631 14.2513 23.0885 14.2421C22.9061 14.2424 22.7241 14.2238 22.5455 14.1866C21.8813 14.0425 21.267 13.7252 20.765 13.267L20.747 13.255C20.7294 13.2289 20.705 13.208 20.6765 13.1945C20.648 13.1811 20.6164 13.1755 20.585 13.1785H20.582Z" fill="#00A609"/>
</svg>
