<svg width="40" height="40" viewBox="0 0 40 40" fill="none" xmlns="http://www.w3.org/2000/svg">
<circle cx="20" cy="20" r="20" fill="#303139"/>
<g clip-path="url(#clip0_2049_33509)">
<path d="M24.2782 17.7749L20 20.627L15.7218 17.7749C15.5484 17.6592 15.3362 17.6172 15.1318 17.658C14.9274 17.6988 14.7477 17.8191 14.632 17.9925C14.5163 18.1659 14.4743 18.3781 14.5151 18.5825C14.5559 18.7868 14.6763 18.9666 14.8496 19.0823L19.5639 22.2251C19.693 22.3113 19.8448 22.3573 20 22.3573C20.1552 22.3573 20.307 22.3113 20.4361 22.2251L25.1504 19.0823C25.2362 19.025 25.3099 18.9514 25.3673 18.8656C25.4247 18.7799 25.4647 18.6837 25.4849 18.5825C25.5051 18.4813 25.5052 18.3771 25.4851 18.2759C25.4651 18.1746 25.4253 18.0783 25.368 17.9925C25.3107 17.9067 25.2371 17.8329 25.1514 17.7755C25.0656 17.7181 24.9694 17.6782 24.8682 17.658C24.767 17.6378 24.6628 17.6377 24.5616 17.6577C24.4603 17.6778 24.3641 17.7176 24.2782 17.7749ZM20 10.5714C25.2069 10.5714 29.4286 14.7931 29.4286 20C29.4286 25.2069 25.2069 29.4286 20 29.4286C14.7931 29.4286 10.5714 25.2069 10.5714 20C10.5714 14.7931 14.7931 10.5714 20 10.5714ZM20 9C13.9249 9 9 13.9249 9 20C9 26.0751 13.9249 31 20 31C26.0751 31 31 26.0751 31 20C31 13.9249 26.0751 9 20 9Z" fill="white"/>
</g>
<defs>
<clipPath id="clip0_2049_33509">
<rect width="22" height="22" fill="#303139" transform="matrix(1 0 0 -1 9 31)"/>
</clipPath>
</defs>
</svg>
