<svg width="31" height="30" viewBox="0 0 31 30" fill="none" xmlns="http://www.w3.org/2000/svg">
<ellipse cx="15.6826" cy="15" rx="14.9844" ry="15" fill="white" fill-opacity="0.1"/>
<g clip-path="url(#clip0_472_1424)">
<path d="M15.4518 6.83008C11.0272 6.83008 7.44116 10.4198 7.44116 14.8491C7.44116 19.2783 11.0272 22.8681 15.4518 22.8681C19.8764 22.8681 23.4625 19.2783 23.4625 14.8491C23.4625 10.4198 19.8764 6.83008 15.4518 6.83008ZM22.3568 14.3145H20.2394C20.1476 12.0007 19.4717 9.95415 18.4516 8.58841C20.6274 9.63464 22.1607 11.7856 22.3568 14.3145ZM19.163 14.3145H15.9859V7.97863C17.7027 8.43597 19.0295 11.0609 19.163 14.3145ZM14.9178 7.97863V14.3145H11.7406C11.8741 11.0609 13.2009 8.43597 14.9178 7.97863ZM12.452 8.58841C11.4298 9.95415 10.756 11.9986 10.6642 14.3145H8.5468C8.74289 11.7856 10.2762 9.63464 12.452 8.58841ZM8.5468 15.3837H10.6621C10.7539 17.6975 11.4298 19.744 12.4499 21.1097C10.2762 20.0635 8.74289 17.9126 8.5468 15.3837ZM11.7406 15.3837H14.9178V21.7195C13.2009 21.2622 11.8741 18.6372 11.7406 15.3837ZM15.9859 21.7195V15.3837H19.163C19.0295 18.6372 17.7027 21.2622 15.9859 21.7195ZM18.4516 21.1097C19.4738 19.744 20.1476 17.6996 20.2394 15.3837H22.3547C22.1607 17.9126 20.6274 20.0635 18.4516 21.1097Z" fill="white"/>
</g>
<defs>
<clipPath id="clip0_472_1424">
<rect width="16.1831" height="16.2" fill="white" transform="translate(7.44116 6.75)"/>
</clipPath>
</defs>
</svg>
