<svg width="26" height="26" viewBox="0 0 26 26" fill="none" xmlns="http://www.w3.org/2000/svg"><path d="M21.298 20.354H6.136a1.31 1.31 0 0 1-1.212-1.798L6.162 15.5v-4.643A7.275 7.275 0 0 1 8.3 5.718a7.275 7.275 0 0 1 5.138-2.138h.018a7.276 7.276 0 0 1 5.139 2.138 7.275 7.275 0 0 1 2.137 5.139v4.585l1.698 2.953c.236.41.234.898-.002 1.308a1.291 1.291 0 0 1-1.13.651zm-14.714-1.61h14.191l-1.652-2.872v-5.015a5.626 5.626 0 0 0-1.666-4.002 5.626 5.626 0 0 0-4.001-1.665h-.018a5.626 5.626 0 0 0-4.002 1.665 5.626 5.626 0 0 0-1.665 4.002v4.957l-1.187 2.93zm4.862-13.328a.711.711 0 0 1-.7-.588 2.72 2.72 0 0 1 2.676-3.187A2.718 2.718 0 0 1 16.1 4.828a.712.712 0 0 1-.815.578l-1.428-.231a2.644 2.644 0 0 0-.868 0l-1.429.231a.575.575 0 0 1-.113.01zm1.975-1.697c.22 0 .442.017.661.053l.533.085a1.298 1.298 0 0 0-1.194-.795c-.539 0-.999.33-1.195.795l.533-.086c.221-.035.443-.052.662-.052zm3.69 19.636h-7.076a.807.807 0 0 1-.805-.805c0-.442.362-.805.805-.805h7.075c.443 0 .805.363.805.805a.807.807 0 0 1-.805.805z" fill="white"/></svg>