<svg width="60" height="60" viewBox="0 0 60 60" fill="none" xmlns="http://www.w3.org/2000/svg">
<g clip-path="url(#clip0_527_327)">
<path d="M30 60C13.431 60 0 46.569 0 30C0 13.431 13.431 0 30 0C46.569 0 60 13.431 60 30C60 46.569 46.569 60 30 60ZM21.928 43.22V23.284H15.928V43.22H21.928ZM18.928 14.6C16.993 14.6 15.73 15.945 15.769 17.74C15.729 19.452 16.993 20.838 18.889 20.838C20.862 20.838 22.126 19.452 22.126 17.739C22.086 15.945 20.862 14.6 18.928 14.6ZM26.745 43.22H32.745V31.723C32.745 31.153 32.825 30.541 32.983 30.173C33.377 29.033 34.364 27.85 36.023 27.85C38.193 27.85 39.063 29.603 39.063 32.172V43.22H45.063V31.397C45.063 25.527 42.103 22.835 38.154 22.835C34.957 22.835 32.983 24.752 32.193 26.015H32.074L31.798 23.284H26.587C26.666 25.037 26.745 27.157 26.745 29.644V43.22Z" fill="#0073B1"/>
</g>
<defs>
<clipPath id="clip0_527_327">
<rect width="60" height="60" fill="white"/>
</clipPath>
</defs>
</svg>
