<svg width="22" height="22" viewBox="0 0 22 22" fill="none" xmlns="http://www.w3.org/2000/svg"><g clip-path="url(#a)"><path d="M10.692.108C4.786.108 0 4.895 0 10.8c0 5.906 4.786 10.692 10.692 10.692 5.906 0 10.692-4.786 10.692-10.692 0-5.906-4.786-10.692-10.692-10.692zm9.216 9.98h-2.826c-.122-3.086-1.024-5.814-2.386-7.635a9.257 9.257 0 0 1 5.212 7.634zm-4.263 0h-4.24V1.64c2.291.61 4.062 4.11 4.24 8.447zM9.98 1.64v8.447H5.74C5.917 5.75 7.688 2.25 9.979 1.64zm-3.29.813c-1.365 1.82-2.265 4.546-2.387 7.634H1.476a9.257 9.257 0 0 1 5.212-7.634zm-5.213 9.06H4.3c.123 3.085 1.025 5.814 2.386 7.635a9.26 9.26 0 0 1-5.21-7.635zm4.263 0h4.24v8.448c-2.291-.61-4.062-4.11-4.24-8.448zm5.666 8.448v-8.448h4.24c-.178 4.338-1.949 7.838-4.24 8.448zm3.29-.813c1.365-1.821 2.265-4.547 2.387-7.635h2.823a9.249 9.249 0 0 1-5.21 7.635z" fill="white"/></g><defs><clipPath id="a"><path fill="#fff" d="M0 0h21.6v21.6H0z"/></clipPath></defs></svg>