<svg width="25" height="25" viewBox="0 0 25 25" fill="none" xmlns="http://www.w3.org/2000/svg"><g clip-path="url(#a)"><mask id="b" maskUnits="userSpaceOnUse" x=".019" y=".021" width="24" height="24" fill="white"><path fill="#fff" d="M.019.021h24v24h-24z"/><path d="M23.42 10.244c-.04-.93-.53-1.819-1.32-2.265a2.552 2.552 0 0 0-1.235-.333h-.852a7.285 7.285 0 0 0-.11-.487 9.249 9.249 0 0 0-.413-1.193A8.35 8.35 0 0 0 18.317 4a7.97 7.97 0 0 0-3.594-2.558 7.636 7.636 0 0 0-4.512-.153 7.915 7.915 0 0 0-3.75 2.317 8.488 8.488 0 0 0-2.03 4.04h-.332c-.462 0-.935-.023-1.374.157-.432.176-.826.437-1.116.823a2.897 2.897 0 0 0-.576 1.491c-.023.228-.012.463-.012.692v3.293a2.788 2.788 0 0 0 1.086 2.206c.501.392 1.101.494 1.708.494h.616c.031.163.067.325.11.486a9.3 9.3 0 0 0 .412 1.192 8.341 8.341 0 0 0 1.174 1.966 7.968 7.968 0 0 0 3.594 2.56c.806.28 1.65.422 2.5.422a.782.782 0 0 0 .754-.791c-.018-.427-.33-.79-.753-.791a7.1 7.1 0 0 1-.862-.054 7.021 7.021 0 0 1-1.65-.474 7.131 7.131 0 0 1-1.412-.861l-.02-.015-.053-.044a7.439 7.439 0 0 1-1.044-1.085l-.046-.062a.786.786 0 0 1-.032-.04l-.002-.003-.003-.005-.032-.041.029.037a7.765 7.765 0 0 1-.835-1.505 8.02 8.02 0 0 1-.45-1.757V8.75a.76.76 0 0 0-.018-.158 1.58 1.58 0 0 0 .02-.111l-.012.09a8.032 8.032 0 0 1 .463-1.824 7.78 7.78 0 0 1 .76-1.4c.026-.034.05-.069.074-.105l.16-.206a7.445 7.445 0 0 1 .962-.986.367.367 0 0 1 .069-.055l.011-.009a7.169 7.169 0 0 1 1.419-.863 7.023 7.023 0 0 1 1.643-.47 7.017 7.017 0 0 1 1.726 0c.566.09 1.12.248 1.65.473a7.166 7.166 0 0 1 1.303.778c.037.026.072.055.108.082l.02.017.052.043.117.1a7.462 7.462 0 0 1 .927.984l.047.06a.817.817 0 0 1 .032.043l.002.003.003.004.031.041-.028-.037a7.769 7.769 0 0 1 .835 1.505c.209.546.358 1.116.443 1.698l.096 2.534c.05 1.356.1 2.711.153 4.067l.035.939c.015.413.336.81.753.791a.418.418 0 0 0 .072-.007.714.714 0 0 0 .193.027h.898c.754-.002 1.52-.334 1.995-.963a2.906 2.906 0 0 0 .602-1.793v-3.235c-.003-.189.003-.377-.005-.564zm-19.976 4.97a1.865 1.865 0 0 1-.278-.08 1.755 1.755 0 0 1-.2-.118l-.032-.023a2.481 2.481 0 0 1-.1-.096c-.032-.034-.062-.07-.092-.105-.007-.011-.014-.021-.02-.033a1.898 1.898 0 0 1-.114-.21 2.088 2.088 0 0 1-.075-.284c-.01-.158-.007-.316-.007-.474V10.74c0-.184-.006-.371.007-.555.018-.097.043-.193.075-.286.033-.072.07-.143.113-.21l.021-.032c.03-.036.06-.072.092-.106s.066-.064.1-.096l.031-.022c.064-.044.13-.084.2-.119.09-.033.183-.06.277-.079.266-.022.538-.005.803-.005h.057v5.991h-.056c-.264-.001-.537.016-.802-.007zm2.366.736v-.006.006zm15.699-.958-.031.023a1.74 1.74 0 0 1-.2.118 1.865 1.865 0 0 1-.281.08 5.16 5.16 0 0 1-.609.014l-.067-1.785-.153-4.066-.006-.149h.035c.264 0 .537-.017.802.006.095.02.188.046.278.079.07.035.136.075.2.119l.03.022c.034.031.068.062.1.096.033.034.062.07.092.105l.021.032c.042.068.08.138.114.211.031.093.056.188.075.284.01.158.007.316.007.474v3.054c0 .184.006.371-.007.555a2.13 2.13 0 0 1-.075.286 1.935 1.935 0 0 1-.113.21l-.021.032c-.03.036-.06.071-.092.106-.032.034-.066.063-.1.094z"/></mask><path d="M23.42 10.244c-.04-.93-.53-1.819-1.32-2.265a2.552 2.552 0 0 0-1.235-.333h-.852a7.285 7.285 0 0 0-.11-.487 9.249 9.249 0 0 0-.413-1.193A8.35 8.35 0 0 0 18.317 4a7.97 7.97 0 0 0-3.594-2.558 7.636 7.636 0 0 0-4.512-.153 7.915 7.915 0 0 0-3.75 2.317 8.488 8.488 0 0 0-2.03 4.04h-.332c-.462 0-.935-.023-1.374.157-.432.176-.826.437-1.116.823a2.897 2.897 0 0 0-.576 1.491c-.023.228-.012.463-.012.692v3.293a2.788 2.788 0 0 0 1.086 2.206c.501.392 1.101.494 1.708.494h.616c.031.163.067.325.11.486a9.3 9.3 0 0 0 .412 1.192 8.341 8.341 0 0 0 1.174 1.966 7.968 7.968 0 0 0 3.594 2.56c.806.28 1.65.422 2.5.422a.782.782 0 0 0 .754-.791c-.018-.427-.33-.79-.753-.791a7.1 7.1 0 0 1-.862-.054 7.021 7.021 0 0 1-1.65-.474 7.131 7.131 0 0 1-1.412-.861l-.02-.015-.053-.044a7.439 7.439 0 0 1-1.044-1.085l-.046-.062a.786.786 0 0 1-.032-.04l-.002-.003-.003-.005-.032-.041.029.037a7.765 7.765 0 0 1-.835-1.505 8.02 8.02 0 0 1-.45-1.757V8.75a.76.76 0 0 0-.018-.158 1.58 1.58 0 0 0 .02-.111l-.012.09a8.032 8.032 0 0 1 .463-1.824 7.78 7.78 0 0 1 .76-1.4c.026-.034.05-.069.074-.105l.16-.206a7.445 7.445 0 0 1 .962-.986.367.367 0 0 1 .069-.055l.011-.009a7.169 7.169 0 0 1 1.419-.863 7.023 7.023 0 0 1 1.643-.47 7.017 7.017 0 0 1 1.726 0c.566.09 1.12.248 1.65.473a7.166 7.166 0 0 1 1.303.778c.037.026.072.055.108.082l.02.017.052.043.117.1a7.462 7.462 0 0 1 .927.984l.047.06a.817.817 0 0 1 .032.043l.002.003.003.004.031.041-.028-.037a7.769 7.769 0 0 1 .835 1.505c.209.546.358 1.116.443 1.698l.096 2.534c.05 1.356.1 2.711.153 4.067l.035.939c.015.413.336.81.753.791a.418.418 0 0 0 .072-.007.714.714 0 0 0 .193.027h.898c.754-.002 1.52-.334 1.995-.963a2.906 2.906 0 0 0 .602-1.793v-3.235c-.003-.189.003-.377-.005-.564zm-19.976 4.97a1.865 1.865 0 0 1-.278-.08 1.755 1.755 0 0 1-.2-.118l-.032-.023a2.481 2.481 0 0 1-.1-.096c-.032-.034-.062-.07-.092-.105-.007-.011-.014-.021-.02-.033a1.898 1.898 0 0 1-.114-.21 2.088 2.088 0 0 1-.075-.284c-.01-.158-.007-.316-.007-.474V10.74c0-.184-.006-.371.007-.555.018-.097.043-.193.075-.286.033-.072.07-.143.113-.21l.021-.032c.03-.036.06-.072.092-.106s.066-.064.1-.096l.031-.022c.064-.044.13-.084.2-.119.09-.033.183-.06.277-.079.266-.022.538-.005.803-.005h.057v5.991h-.056c-.264-.001-.537.016-.802-.007zm2.366.736v-.006.006zm15.699-.958-.031.023a1.74 1.74 0 0 1-.2.118 1.865 1.865 0 0 1-.281.08 5.16 5.16 0 0 1-.609.014l-.067-1.785-.153-4.066-.006-.149h.035c.264 0 .537-.017.802.006.095.02.188.046.278.079.07.035.136.075.2.119l.03.022c.034.031.068.062.1.096.033.034.062.07.092.105l.021.032c.042.068.08.138.114.211.031.093.056.188.075.284.01.158.007.316.007.474v3.054c0 .184.006.371-.007.555a2.13 2.13 0 0 1-.075.286 1.935 1.935 0 0 1-.113.21l-.021.032c-.03.036-.06.071-.092.106-.032.034-.066.063-.1.094z" fill="white"/><path d="m8.32 4.035.008-.007-.064-.077-.008.007.064.077zm15.1 6.209-.099.004.1-.004zM22.1 7.979l-.05.087.05-.087zm-1.235-.333.001-.1v.1zm-.852 0-.098.018.015.082h.083v-.1zm-.11-.487.098-.025-.097.025zm-.413-1.193-.092.038v.001l.092-.039zM18.317 4l.078-.061-.078.061zm-3.594-2.558-.033.094.033-.094zm-4.512-.153-.026-.096.026.096zm-3.75 2.317-.074-.067.074.067zm-2.03 4.04v.1h.082l.016-.082-.098-.019zm-1.706.157.038.093-.038-.093zm-1.116.823.08.06-.08-.06zm-.576 1.491.1.01-.1-.01zm-.012 3.985h-.1.1zm1.086 2.206-.062.079.062-.079zm2.324.494.098-.019-.015-.08h-.083v.1zm.11.486-.097.026.096-.026zm.412 1.192.093-.038-.093.038zm1.174 1.966-.079.062.079-.062zm3.594 2.56-.034.094.034-.095zm2.5.422v-.1.1zm0-1.582.001-.1v.1zm-.861-.054-.016.099h.003l.013-.1zm-1.65-.474-.041.091.002.001.04-.092zm-.858-.468-.053.084.053-.084zm-.446-.31.06-.08-.06.08zm-.108-.083-.062.078.062-.078zm-.02-.015-.064.076.002.002.062-.078zm-.053-.044-.064.076.064-.076zm-.116-.1.067-.075-.067.074zm-.764-.784-.077.064.077-.064zm-.163-.201-.08.061h.001l.079-.061zm-.047-.062.079-.06-.16.12.08-.06zm-.032-.04.08-.06-.08.06zm-.002-.003-.081.059.08-.06zm-.003-.005.08-.059-.08.06zm-.032-.041.08-.06-.161.117.081-.057zm.029.037-.08.061.161-.119-.081.058zm-.3-.452-.085.052.086-.052zm-.535-1.053-.093.036.001.003.092-.039zm-.45-1.757h-.102l.002.014.1-.014zm0-7.186h.1-.1zm-.018-.158-.097-.021-.005.02.005.022.097-.021zm.02-.111.1.013-.199-.027.099.014zm-.012.09-.099-.012.198.026-.099-.013zm.463-1.824-.093-.039v.003l.093.036zm.462-.93-.086-.05.086.05zm.299-.47-.081-.058-.002.002.083.057zm.073-.105-.08-.06-.002.004.082.056zm.16-.206-.077-.063.078.063zm.753-.799-.068-.074.068.074zm.191-.17.065.077-.065-.076zm.059-.049.07.072-.134-.148.064.076zm-.04.032-.072-.07.125.155-.054-.085zm.068-.055.053.085.005-.004-.058-.08zm.011-.009-.061-.078-.002.001.063.077zm.441-.318-.055-.083.055.083zm.978-.545-.039-.092-.003.002.042.09zm1.643-.47-.012-.099h-.003l.015.1zm1.726 0 .016-.098H13.1l-.012.098zm1.65.473.041-.091-.003-.002-.039.093zm.857.468.053-.084-.053.084zm.446.31-.06.08h.002l.058-.08zm.108.082.063-.078h-.001l-.062.078zm.02.017.064-.077-.001-.002-.063.079zm.052.043.065-.077-.065.077zm.117.1-.067.075.067-.075zm.764.784.077-.065-.077.065zm.163.2-.079.062.08-.062zm.047.06-.08.062.16-.121-.08.06zm.032.043.082-.057v-.001l-.082.058zm.002.003-.082.057.003.003.08-.06zm.003.004-.08.06h.001l.08-.06zm.031.041-.079.061.159-.121-.08.06zm-.028-.037.08-.06-.161.118.081-.058zm.3.452.084-.052-.085.052zm.535 1.053.093-.036v-.003l-.093.039zm.443 1.698.1-.004v-.01l-.1.014zm.096 2.534.1-.003-.1.003zm.153 4.067.1-.004-.1.004zm.035.939-.1.004.1-.004zm.753.791v-.1h-.004l.004.1zm.072-.007.027-.096-.02-.006-.021.003.014.1zm.193.027v-.1.1zm.898 0v.1-.1zm1.995-.963.08.06-.08-.06zm.602-5.028h.1v-.002l-.1.002zM3.444 15.213l-.02.099.012.001.008-.1zm-.278-.079-.046.09.011.004.035-.094zm-.2-.118.056-.083-.057.083zm-.032-.023-.068.074.01.008.058-.082zm-.192-.201-.083.056.006.008.077-.064zm-.02-.033.084-.052-.085.052zm-.114-.21-.095.032.004.01.091-.042zm-.075-.284-.1.007.002.011.098-.018zm0-4.081-.1-.019v.012l.1.007zm.075-.286-.092-.042-.003.01.095.032zm.113-.21-.085-.053.085.053zm.021-.032-.077-.065-.006.009.083.056zm.192-.202-.06-.08-.007.006.067.074zm.031-.022.056.083-.056-.083zm.2-.119-.036-.094-.01.005.045.09zm.277-.079-.008-.1-.011.002.02.098zm.86-.005h.1v-.1h-.1v.1zm0 5.991v.1h.1v-.1h-.1zm-.056 0v.1-.1zm1.564.73-.1.006.2-.006h-.1zm0-.006h.1l-.2-.006.1.006zm15.699-.952.058.082.01-.009-.068-.073zm-.031.023-.056-.083.056.083zm-.2.118.035.095.01-.005-.046-.09zm-.281.08.007.101.012-.002-.02-.098zm-.609.014-.1.004.003.093.094.003.003-.1zm-.067-1.785-.1.004.1-.004zm-.153-4.066-.1.003.1-.003zm-.006-.149v-.1h-.104l.004.104.1-.004zm.837.006.02-.099h-.011l-.009.1zm.278.079.046-.09-.011-.004-.035.094zm.2.119-.057.082.056-.082zm.03.022.07-.074-.011-.007-.059.08zm.192.201.085-.055-.008-.009-.077.064zm.021.032.085-.052-.085.052zm.114.211.095-.032-.005-.01-.09.042zm.075.284.1-.007-.002-.011-.098.018zm0 4.083.099.02v-.013l-.099-.007zm-.075.286.091.042.004-.01-.095-.033zm-.113.21-.085-.053.085.053zm-.021.032.076.066.007-.011-.083-.055zm1.82-4.553c-.04-.96-.546-1.882-1.371-2.347l-.098.174c.757.427 1.231 1.281 1.27 2.182l.2-.008zm-1.37-2.347a2.652 2.652 0 0 0-1.284-.346l-.002.2a2.45 2.45 0 0 1 1.187.32l.098-.174zm-1.284-.346h-.853v.2h.852v-.2zm-.755.08a7.445 7.445 0 0 0-.11-.492l-.194.05c.042.16.077.32.108.48l.196-.037zm-.11-.493a9.364 9.364 0 0 0-.419-1.206l-.184.078c.163.383.3.777.41 1.18L20 7.134zm-.418-1.205a8.448 8.448 0 0 0-1.188-1.99l-.157.124a8.25 8.25 0 0 1 1.16 1.942l.185-.076zm-1.188-1.99a8.069 8.069 0 0 0-3.639-2.59l-.066.188a7.869 7.869 0 0 1 3.548 2.526l.157-.124zm-3.639-2.59a7.736 7.736 0 0 0-4.57-.155l.052.193a7.536 7.536 0 0 1 4.452.15l.066-.188zm-4.571-.155a8.015 8.015 0 0 0-3.798 2.346l.148.135a7.815 7.815 0 0 1 3.703-2.289l-.053-.192zM6.387 3.539a8.588 8.588 0 0 0-2.055 4.087l.197.038a8.388 8.388 0 0 1 2.006-3.99l-.148-.135zM4.43 7.545h-.332v.2h.332v-.2zm-.332 0c-.453 0-.95-.024-1.412.166l.076.185c.416-.171.866-.15 1.336-.15v-.2zm-1.412.166c-.444.18-.854.45-1.158.855l.16.12c.276-.368.654-.62 1.074-.79l-.076-.185zm-1.157.854c-.338.443-.545.98-.597 1.543l.2.018a2.797 2.797 0 0 1 .556-1.44l-.16-.12zm-.597 1.542c-.023.235-.012.48-.012.702h.2c0-.236-.01-.46.011-.682l-.199-.02zm-.012.702v3.293h.2V10.81h-.2zm0 3.294a2.888 2.888 0 0 0 1.124 2.284l.124-.157a2.688 2.688 0 0 1-1.048-2.128h-.2zm1.124 2.284c.527.412 1.153.515 1.77.515v-.2c-.597 0-1.17-.1-1.647-.473l-.123.158zm1.77.515h.616v-.2h-.616v.2zm.518-.081c.031.165.068.329.11.493l.194-.05a7.356 7.356 0 0 1-.108-.48l-.196.037zm.11.494c.113.411.252.814.418 1.204l.184-.078a9.208 9.208 0 0 1-.408-1.179l-.193.053zm.418 1.204c.3.725.711 1.384 1.187 1.99l.158-.125a8.241 8.241 0 0 1-1.16-1.942l-.185.077zm1.188 1.99a8.068 8.068 0 0 0 3.638 2.59l.067-.188a7.868 7.868 0 0 1-3.548-2.527l-.158.124zm3.639 2.59a7.705 7.705 0 0 0 2.534.429v-.2c-.839 0-1.672-.14-2.468-.417l-.066.189zm2.534.429c.449 0 .874-.41.853-.895l-.2.008a.682.682 0 0 1-.653.687v.2zm.853-.895c-.02-.469-.366-.885-.853-.887v.2c.358.001.637.31.653.695l.2-.008zm-.853-.887c-.284 0-.568-.019-.85-.053l-.025.198c.29.036.582.054.875.055v-.2zm-.847-.053a6.927 6.927 0 0 1-1.626-.467l-.078.184c.538.229 1.1.39 1.673.48l.031-.197zm-1.623-.466a7.013 7.013 0 0 1-.846-.462l-.107.169c.28.178.57.337.87.475l.083-.182zm-.846-.462a7.253 7.253 0 0 1-.44-.306l-.12.16c.147.111.298.216.453.315l.107-.169zm-.44-.306a6.794 6.794 0 0 1-.107-.08l-.123.157.11.083.12-.16zm-.106-.08-.02-.016-.124.157.02.015.124-.157zm-.018-.014-.053-.044-.128.154.053.043.128-.153zm-.052-.044a6.71 6.71 0 0 1-.114-.099l-.133.15.118.102.129-.153zm-.114-.099a7.353 7.353 0 0 1-.755-.773l-.153.129c.24.284.499.55.775.794l.133-.15zm-.755-.773a7.913 7.913 0 0 1-.16-.198l-.158.123c.054.069.109.137.165.204l.153-.129zm-.16-.198c-.016-.02-.03-.04-.047-.06l-.159.121.048.062.158-.123zm-.206.06.018.025-.002-.003-.005-.009s-.005-.01-.007-.021c-.001-.005-.005-.022 0-.045a.176.176 0 0 1 .025-.046.174.174 0 0 1 .055-.03c.03-.005.054.006.059.008a.101.101 0 0 1 .016.01c.006.003.01.007.01.008l.008.008-.005-.006a2.312 2.312 0 0 1-.043-.058l-.163.116.049.065.008.01.002.003.002.002.006.006.01.008a.1.1 0 0 0 .017.01.095.095 0 0 0 .058.007.174.174 0 0 0 .055-.029.177.177 0 0 0 .026-.047c.005-.022 0-.04 0-.044-.003-.012-.007-.02-.008-.022a.1.1 0 0 0-.005-.01l-.002-.002a1.033 1.033 0 0 0-.024-.034l-.16.12zm.128-.16-.002-.003-.16.12.001.002.16-.12zm-.001-.002-.004-.005-.161.118.003.005.162-.118zm-.005-.006-.029-.038-.163.114a.415.415 0 0 0 .033.044l.16-.12zm-.19.08.029.037.158-.121-.028-.038-.159.122zm.19-.082a7.242 7.242 0 0 1-.296-.446l-.17.104c.095.157.196.31.303.459l.162-.117zm-.296-.446a7.66 7.66 0 0 1-.528-1.04l-.185.078c.154.37.335.726.542 1.066l.171-.104zm-.527-1.037a7.92 7.92 0 0 1-.446-1.735l-.198.027c.085.61.238 1.208.457 1.78l.187-.072zm-.445-1.721V8.75h-.2v7.186h.2zm0-7.186a.86.86 0 0 0-.019-.179l-.195.042a.66.66 0 0 1 .014.137h.2zm-.019-.137c.009-.039.015-.078.021-.118l-.198-.028a1.483 1.483 0 0 1-.018.104l.195.042zm-.177-.145-.012.09.198.026.012-.09-.198-.026zm.186.117a7.932 7.932 0 0 1 .457-1.802l-.187-.072A8.132 8.132 0 0 0 5.7 8.56l.198.026zm.456-1.8a7.68 7.68 0 0 1 .456-.917l-.172-.1a7.879 7.879 0 0 0-.469.94l.185.077zm.456-.917c.093-.158.191-.313.295-.464l-.165-.113a7.786 7.786 0 0 0-.302.476l.172.101zm.294-.462.074-.107-.164-.113-.072.103.162.117zm.072-.103c.052-.07.105-.138.159-.204l-.156-.126c-.056.07-.11.14-.163.209l.16.121zm.159-.204c.228-.282.476-.545.741-.788l-.135-.147a7.68 7.68 0 0 0-.762.809l.156.126zm.741-.788a5.97 5.97 0 0 1 .19-.167l-.13-.152c-.066.056-.13.113-.195.171l.135.148zm.19-.167.057-.049-.128-.153-.06.05.13.152zm-.076-.198a.151.151 0 0 1-.025.02l.107.169a.351.351 0 0 0 .056-.045l-.138-.144zm.1.174a.267.267 0 0 1 .05-.04l-.106-.17a.467.467 0 0 0-.087.07l.143.14zm.055-.044.017-.012-.127-.155a.228.228 0 0 1-.007.005l.117.162zm.015-.01a7.52 7.52 0 0 1 .435-.315l-.111-.166c-.153.102-.302.21-.447.323l.123.157zm.435-.315c.308-.204.63-.384.964-.537l-.084-.181a7.269 7.269 0 0 0-.99.552l.11.166zm.96-.535a6.923 6.923 0 0 1 1.62-.464l-.03-.197c-.572.09-1.131.25-1.667.476l.078.185zm1.618-.463a6.917 6.917 0 0 1 1.701 0l.025-.199a7.117 7.117 0 0 0-1.751 0l.025.199zm1.698 0a6.93 6.93 0 0 1 1.625.465l.078-.185a7.133 7.133 0 0 0-1.672-.478l-.031.197zm1.622.463c.291.134.574.289.846.462l.107-.168a7.263 7.263 0 0 0-.869-.475l-.084.181zm.846.462c.15.096.297.198.44.306l.12-.16a7.223 7.223 0 0 0-.453-.314l-.107.168zm.442.307.105.08.123-.157-.111-.085-.117.162zm.104.08.02.016.125-.157-.02-.016-.125.157zm.019.015.052.043.127-.154-.052-.043-.127.154zm.05.042c.04.033.078.066.115.099l.133-.15a6.665 6.665 0 0 0-.118-.102l-.13.153zm.115.099c.27.238.522.496.755.773l.153-.129a7.55 7.55 0 0 0-.775-.794l-.133.15zm.755.773c.054.065.108.131.16.198l.158-.123a7.901 7.901 0 0 0-.165-.204l-.153.13zm.16.198.046.06.159-.122-.047-.062-.157.124zm.206-.061-.018-.024.002.003.006.013.005.01c0 .005.004.016.004.032a.1.1 0 0 1-.164.074l-.006-.005-.006-.007.005.007.043.057.163-.116a2.123 2.123 0 0 0-.056-.074l-.003-.003a.093.093 0 0 0-.021-.02.1.1 0 0 0-.155.08c0 .017.003.029.004.033a.124.124 0 0 0 .013.027.912.912 0 0 0 .024.033l.16-.12zm-.13.159.002.003.164-.114-.002-.003-.164.114zm.005.006.003.004.159-.12-.003-.005-.16.121zm.003.005.014.019.017.022.159-.122-.015-.019a1.193 1.193 0 0 0-.017-.022l-.158.122zm.19-.08-.029-.037-.158.121.028.037.159-.121zm-.19.081c.104.145.203.294.296.446l.17-.104a7.463 7.463 0 0 0-.303-.458l-.162.116zm.296.446c.201.332.378.679.529 1.04l.184-.078a7.86 7.86 0 0 0-.543-1.066l-.17.104zm.527 1.037c.207.539.354 1.102.438 1.676l.198-.029a8.11 8.11 0 0 0-.449-1.719l-.186.072zm.437 1.665.096 2.535.2-.007-.096-2.535-.2.007zm.096 2.535c.05 1.355.1 2.71.153 4.066l.2-.007-.153-4.066-.2.007zm.153 4.066.035.94.2-.008-.035-.94-.2.008zm.035.94c.017.45.368.91.858.887l-.01-.2c-.345.016-.634-.319-.648-.695l-.2.008zm.853.887c.034 0 .064-.005.086-.008l-.028-.198a.394.394 0 0 1-.058.006v.2zm.045-.01c.072.02.146.03.22.03v-.2a.613.613 0 0 1-.166-.023l-.054.193zm.22.03h.898v-.2h-.898v.2zm.899 0c.78-.002 1.579-.346 2.074-1.003l-.16-.12c-.453.6-1.189.921-1.915.922v.2zm2.074-1.003c.408-.54.622-1.16.622-1.853h-.2c0 .649-.199 1.226-.581 1.732l.16.12zm.622-1.853v-3.235h-.2v3.235h.2zm0-3.237c-.003-.18.003-.379-.005-.567l-.2.01c.008.186.002.364.005.56l.2-.003zm-20.062 4.31a1.758 1.758 0 0 1-.264-.075l-.069.187c.096.036.194.063.293.083l.04-.196zm-.253-.07a1.659 1.659 0 0 1-.19-.113l-.112.165c.068.047.139.089.212.126l.09-.179zm-.19-.113c-.01-.007-.012-.01-.028-.02l-.117.162.033.024.112-.166zm-.019-.013a2.388 2.388 0 0 1-.096-.092l-.144.139c.035.036.071.069.105.1l.135-.147zm-.096-.092a1.695 1.695 0 0 1-.086-.1l-.155.128c.03.035.062.074.097.11l.144-.138zm-.08-.092-.02-.029-.17.105.024.036.165-.112zm-.02-.03a1.807 1.807 0 0 1-.107-.199l-.182.084c.035.076.075.15.12.221l.17-.105zm-.103-.19a1.988 1.988 0 0 1-.072-.27l-.196.037c.019.102.045.201.078.298l.19-.064zm-.07-.258c-.01-.153-.007-.306-.007-.467h-.2c0 .155-.004.318.007.48l.2-.013zm-.007-.467V10.74h-.2v3.052h.2zm0-3.052c0-.189-.006-.369.006-.548l-.2-.014c-.012.189-.006.382-.006.562h.2zm.005-.537c.017-.092.041-.183.072-.272l-.19-.064c-.033.098-.06.198-.079.3l.197.036zm.068-.262c.031-.069.067-.135.107-.2l-.17-.105a1.994 1.994 0 0 0-.119.222l.182.083zm.107-.2.02-.028-.167-.112-.023.035.17.106zm.013-.02c.03-.036.058-.07.088-.1l-.146-.138a2.336 2.336 0 0 0-.096.11l.154.128zm.088-.1c.029-.032.06-.06.095-.092l-.135-.148c-.034.031-.07.065-.106.102l.146.137zm.087-.085.027-.02-.112-.166-.034.025.119.16zm.028-.02c.06-.042.123-.08.188-.113l-.091-.178a1.836 1.836 0 0 0-.21.126l.113.164zm.177-.108a1.77 1.77 0 0 1 .263-.075l-.04-.196a1.87 1.87 0 0 0-.292.084l.069.187zm.252-.073c.26-.022.52-.005.794-.005v-.2c-.256 0-.54-.017-.811.006l.017.199zm.794-.005h.057v-.2h-.057v.2zm-.043-.1v5.991h.2V9.23h-.2zm.1 5.891h-.056v.2h.056v-.2zm-.056 0c-.273-.001-.533.016-.794-.006l-.016.199c.27.023.555.006.81.007v-.2zm1.664.824v.005l-.2-.01v.017l.2-.012zm-.2 0v.006h.2v-.006h-.2zm15.74-1.033-.028.02.112.167.033-.024-.117-.163zm-.029.021c-.06.042-.124.08-.189.112l.09.179c.073-.037.144-.08.212-.126l-.113-.165zm-.179.108a1.769 1.769 0 0 1-.265.076l.04.196c.1-.02.199-.049.295-.085l-.07-.187zm-.253.074c-.199.016-.398.02-.598.013l-.006.2c.206.007.413.003.62-.013l-.016-.2zm-.501.11-.067-1.786-.2.008.067 1.785.2-.007zm-.067-1.786-.153-4.066-.2.007c.05 1.356.102 2.711.153 4.067l.2-.008zm-.153-4.066-.006-.149-.2.008.006.148.2-.007zm-.106-.045h.035v-.2h-.035v.2zm.035 0c.273 0 .534-.016.794.006l.017-.2c-.271-.023-.555-.006-.811-.006v.2zm.782.004c.09.018.178.043.264.075l.069-.188a1.972 1.972 0 0 0-.293-.083l-.04.196zm.253.07c.065.033.128.07.188.112l.113-.165a1.831 1.831 0 0 0-.21-.125l-.091.178zm.189.113.028.02.117-.162-.034-.024-.111.166zm.018.012c.035.033.067.061.096.092l.145-.138c-.035-.036-.072-.07-.104-.1l-.137.146zm.096.092c.03.031.056.063.088.1l.153-.128c-.029-.034-.061-.073-.096-.11l-.145.138zm.08.09.02.032.17-.107-.022-.033-.168.109zm.02.031c.04.064.076.131.108.2l.181-.084a2.028 2.028 0 0 0-.119-.221l-.17.105zm.104.19c.03.089.054.18.072.271l.196-.037a2.334 2.334 0 0 0-.079-.298l-.189.064zm.07.26c.01.153.007.305.007.466h.2c0-.154.004-.318-.007-.48l-.2.013zm.007.466v3.054h.2v-3.054h-.2zm0 3.054c0 .189.006.369-.007.548l.2.014c.013-.189.007-.382.007-.562h-.2zm-.005.537a2.024 2.024 0 0 1-.072.271l.19.065c.033-.098.059-.198.078-.299l-.196-.037zm-.068.262a1.847 1.847 0 0 1-.107.2l.17.105c.044-.071.084-.145.119-.222l-.182-.083zm-.108.2-.02.03.168.109.023-.035-.17-.104zm-.012.02c-.03.036-.058.07-.088.101l.146.137c.034-.036.066-.074.095-.109l-.153-.13zm-.088.101c-.03.031-.058.056-.095.09l.137.146c.03-.028.069-.061.104-.099l-.146-.137z" fill="#061023" mask="url(#b)"/></g><defs><clipPath id="a"><path fill="#fff" transform="translate(0 .002)" d="M0 0h24.444v24.444H0z"/></clipPath></defs></svg>