<svg width="45" height="45" viewBox="0 0 45 45" fill="none" xmlns="http://www.w3.org/2000/svg">
<path d="M35.8609 43C33.8427 43 32.8329 42.0013 32.8329 40.0046V22.0357C32.8329 20.0389 33.842 19.0409 35.8616 19.0402H38.8896C40.9078 19.0402 41.9176 20.0389 41.9176 22.0357V40.0046C41.9176 42.0013 40.9078 42.9994 38.8896 43H35.8609ZM8.60884 43C6.58996 43 5.5802 42.0013 5.5802 40.0046V32.5175C5.5802 30.5208 6.58932 29.5227 8.60884 29.5227H11.6356C13.6545 29.5227 14.6642 30.5208 14.6649 32.5175V40.0046C14.6649 42.0013 13.6551 42.9994 11.6362 43H8.60884ZM22.2349 43C20.216 43 19.2069 42.0019 19.2069 40.0052V26.5285C19.2069 24.5318 20.216 23.5337 22.2349 23.5331H25.2629C27.2811 23.5331 28.2909 24.5318 28.2915 26.5285V40.0052C28.2915 42.0019 27.2818 43 25.2629 43H22.2349ZM6.84461 21.9838C6.57668 22.2388 6.24954 22.4248 5.89192 22.5255C5.53431 22.6262 5.15716 22.6384 4.79363 22.5612C4.4301 22.484 4.09131 22.3196 3.80703 22.0826C3.52274 21.8456 3.30167 21.5431 3.16323 21.2018C3.0248 20.8605 2.97323 20.4908 3.01307 20.1252C3.05291 19.7596 3.18293 19.4092 3.39172 19.1049C3.6005 18.8006 3.88165 18.5517 4.21047 18.38C4.53929 18.2083 4.9057 18.1191 5.27752 18.1203L10.1822 13.4856C13.5534 10.1964 18.9143 10.0202 22.499 13.0812C23.3462 13.7941 24.4248 14.1813 25.5371 14.1718C26.6494 14.1622 27.721 13.7567 28.5557 13.0294L35.1981 7.49597H32.9012C32.2985 7.49597 31.7205 7.25945 31.294 6.83833C30.8675 6.41721 30.6274 5.84591 30.6264 5.24986C30.6264 4.65316 30.866 4.0809 31.2926 3.65897C31.7192 3.23704 32.2978 3 32.9012 3H40.729C41.3316 3.00099 41.9093 3.23847 42.3351 3.66029C42.7609 4.08212 43 4.65381 43 5.24986V12.9913C43 13.2862 42.9413 13.5783 42.8272 13.8509C42.7131 14.1234 42.5458 14.3711 42.3349 14.5797C42.1241 14.7883 41.8737 14.9538 41.5981 15.0667C41.3226 15.1796 41.0273 15.2377 40.729 15.2377C40.4307 15.2377 40.1354 15.1796 39.8598 15.0667C39.5843 14.9538 39.3339 14.7883 39.123 14.5797C38.9122 14.3711 38.7449 14.1234 38.6308 13.8509C38.5167 13.5783 38.4579 13.2862 38.458 12.9913V10.6458L31.5009 16.4129C29.8441 17.828 27.7313 18.6123 25.5422 18.6248C23.3532 18.6373 21.2314 17.8772 19.5582 16.481C18.6832 15.7403 17.5589 15.3516 16.4079 15.3917C15.2568 15.4319 14.163 15.8981 13.3429 16.6979L8.4218 21.3626C7.99919 21.761 7.43789 21.9834 6.85409 21.9838H6.84461Z" fill="#00A609"/>
</svg>
