<svg width="100" height="100" viewBox="0 0 100 100" fill="none" xmlns="http://www.w3.org/2000/svg">
<g clip-path="url(#clip0_60_5161)">
<path d="M67.0586 88.4355C68.1296 88.4352 69.1797 88.7329 70.0908 89.2959C71.002 89.8591 71.738 90.6658 72.2168 91.624C72.2286 92.6473 72.4293 93.6586 72.8057 94.6055L72.8232 94.4414C72.8231 97.6236 70.2408 100.2 67.0586 100.2H33.2109C31.6822 100.2 30.2158 99.5927 29.1348 98.5117C28.0538 97.4307 27.4463 95.9643 27.4463 94.4355V94.2002C27.4463 92.6714 28.0538 91.2051 29.1348 90.124C30.2158 89.043 31.6822 88.4356 33.2109 88.4355H67.0586ZM55.6582 64.6943C55.6582 65.4668 55.8109 66.2317 56.1064 66.9453C56.402 67.6588 56.8348 68.3074 57.3809 68.8535C57.9271 69.3997 58.5764 69.8333 59.29 70.1289C60.0036 70.4244 60.7687 70.5762 61.541 70.5762H87.8701V76.6709C87.8699 78.1116 87.3411 79.5025 86.3838 80.5791C85.4264 81.6557 84.1066 82.3432 82.6758 82.5117L81.9873 82.5527H18.7588C17.2309 82.5512 15.7654 81.9432 14.6855 80.8623C13.6059 79.7814 13 78.3158 13 76.7881V35.377C13 34.62 13.1489 33.8702 13.4385 33.1709C13.7282 32.4715 14.1522 31.8351 14.6875 31.2998C15.2228 30.7645 15.8592 30.3405 16.5586 30.0508C17.2579 29.7612 18.0077 29.6123 18.7646 29.6123H55.6582V64.6943ZM83.9639 21.0713C84.8453 21.2323 85.6574 21.6574 86.291 22.291C86.9247 22.9247 87.3507 23.7367 87.5117 24.6182L87.582 25.4121V60.7061L87.5117 61.5C87.3507 62.3815 86.9247 63.1935 86.291 63.8271C85.6574 64.4607 84.8453 64.8858 83.9639 65.0469L83.1699 65.1182H65.5234L64.7285 65.0469C63.8473 64.8858 63.0358 64.4606 62.4023 63.8271C61.7687 63.1935 61.3427 62.3815 61.1816 61.5L61.1113 60.7061V25.4121L61.1816 24.6182C61.3427 23.7367 61.7687 22.9247 62.4023 22.291C63.0358 21.6576 63.8473 21.2324 64.7285 21.0713L65.5234 21H83.1699L83.9639 21.0713ZM74.8467 55.9707C74.3478 55.9697 73.8637 56.1384 73.4727 56.4482C73.0816 56.7581 72.8064 57.1909 72.6934 57.6768L72.6406 58.1768V59.0586C72.6406 60.0821 73.3408 60.9766 74.335 61.2119L74.8467 61.2705H75.7285C76.7519 61.2646 77.6405 60.5593 77.876 59.5654L77.9346 59.0586V58.1768C77.9346 57.8872 77.8774 57.6006 77.7666 57.333C77.6558 57.0655 77.4938 56.822 77.2891 56.6172C77.0842 56.4124 76.8408 56.2495 76.5732 56.1387C76.3056 56.0278 76.0182 55.9707 75.7285 55.9707H74.8467Z" fill="#00A609"/>
</g>
<defs>
<clipPath id="clip0_60_5161">
<rect width="100" height="100" fill="white"/>
</clipPath>
</defs>
</svg>
