<svg width="100" height="100" viewBox="0 0 100 100" fill="none" xmlns="http://www.w3.org/2000/svg">
<path d="M83.5523 21.5025C84.5358 21.6924 85.4206 22.2228 86.0511 23.0002C86.6816 23.7776 87.0173 24.7522 86.999 25.7525V65.575C87.0265 68.217 86.4594 70.8313 85.3395 73.225C84.0254 75.9017 82.3969 78.4127 80.4886 80.705C78.4116 83.1963 76.1191 85.5002 73.6376 87.59C71.1569 89.6725 68.5399 91.585 65.808 93.3275C63.3658 94.9593 60.7892 96.3811 58.1061 97.5775C55.942 98.6546 53.6562 99.4679 51.2977 100H49.5956C47.275 99.4908 45.0196 98.7209 42.8724 97.705C40.1379 96.4748 37.4932 95.0546 34.9577 93.455C32.1857 91.6712 29.5411 89.6973 27.0429 87.5475C24.4749 85.4973 22.1095 83.206 19.9793 80.705C17.9805 78.4363 16.2789 75.9228 14.9156 73.225C13.6728 70.8346 13.0165 68.1834 13.0007 65.49V25.6675C12.9825 24.6672 13.3182 23.6926 13.9486 22.9152C14.5791 22.1378 15.464 21.6074 16.4474 21.4175L50.0637 15L83.5523 21.5025ZM50.1063 21.29H49.6807L20.4473 26.4325V53.76H50.2339L50.1063 21.29ZM79.5524 53.76H50.1063V92.6475C52.2166 92.1054 54.2799 91.3947 56.2763 90.5225C58.5519 89.594 60.7563 88.5002 62.8719 87.25C65.0502 85.9752 67.14 84.5554 69.1271 83C71.0813 81.5151 72.8651 79.8189 74.4461 77.9425C75.9307 76.25 77.1763 74.3625 78.1482 72.3325C79.0574 70.4947 79.5375 68.4749 79.5524 66.425V53.76Z" fill="#00A609"/>
</svg>
