<svg width="100" height="100" viewBox="0 0 100 100" fill="none" xmlns="http://www.w3.org/2000/svg">
<path d="M46.1926 15.2125C26.5879 17.1462 10.6238 32.7939 8.30519 52.3585C6.89428 64.2768 10.466 75.317 17.1456 83.7822L14.7382 96.2037C14.4816 97.5159 15.7445 98.611 17.0075 98.1769L28.9262 94.0726C36.6912 98.6603 46.0052 100.91 55.9408 99.6568C75.4666 97.1903 90.9965 81.1479 92.8119 61.5538C95.2884 34.8066 72.9605 12.5782 46.1926 15.2125ZM76.0389 67.0689C76.0389 68.2529 75.0818 69.2099 73.8978 69.2099H65.9553C64.7713 69.2099 63.8142 68.2529 63.8142 67.0689V55.5157C63.8142 54.4403 64.6134 53.5918 65.6395 53.4339C64.3076 46.9321 58.5356 42.0188 51.6488 42.0188C44.7521 42.0188 38.9901 46.9223 37.6581 53.4339C38.6842 53.5918 39.4834 54.4403 39.4834 55.5157V67.0689C39.4834 68.2529 38.5263 69.2099 37.3424 69.2099H36.0005C36.2965 73.9555 39.8682 77.7836 44.5055 78.4643C44.7521 77.8329 45.3638 77.3791 46.094 77.3791H52.6749C53.6221 77.3791 54.3917 78.1486 54.3917 79.0958V82.6772C54.3917 83.6243 53.6221 84.3939 52.6749 84.3939H46.0644C45.275 84.3939 44.6436 83.8512 44.4364 83.1212C37.2832 82.3911 31.6691 76.4812 31.3633 69.2198H29.3702C28.1862 69.2198 27.2292 68.2627 27.2292 67.0788V55.5157C27.2292 54.3317 28.1862 53.3747 29.3702 53.3747H29.5577C31.0081 42.4628 40.3418 34.0075 51.639 34.0075C62.9361 34.0075 72.2698 42.4529 73.7202 53.3649H73.9077C75.0917 53.3649 76.0487 54.3219 76.0487 55.5058V67.0689H76.0389Z" fill="#00A609"/>
</svg>
