<svg width="60" height="60" viewBox="0 0 60 60" fill="none" xmlns="http://www.w3.org/2000/svg">
<g clip-path="url(#clip0_527_330)">
<path d="M39.81 43.7614L44.7322 20.5586C45.1672 18.5164 43.995 17.7128 42.6557 18.2143L13.7272 29.3636C11.7514 30.1329 11.7857 31.2386 13.3928 31.74L20.7922 34.05L37.9693 23.235C38.7728 22.6993 39.51 23.0014 38.9078 23.5372L25.0136 36.0922L24.4778 43.7272C25.2472 43.7272 25.5836 43.3928 25.9843 42.99L29.5993 39.5078L37.0993 45.0322C38.4728 45.8014 39.4436 45.4007 39.8122 43.7593L39.81 43.7614ZM60 30C60 46.5728 46.5728 60 30 60C13.4272 60 0 46.5728 0 30C0 13.4272 13.4272 0 30 0C46.5728 0 60 13.4272 60 30Z" fill="#1296DB"/>
</g>
<defs>
<clipPath id="clip0_527_330">
<rect width="60" height="60" fill="white"/>
</clipPath>
</defs>
</svg>
