<svg width="60" height="60" viewBox="0 0 60 60" fill="none" xmlns="http://www.w3.org/2000/svg">
<g clip-path="url(#clip0_527_325)">
<path d="M30 0C13.433 0 0 13.433 0 30C0 46.567 13.433 60 30 60C46.567 60 60 46.567 60 30C60 13.433 46.567 0 30 0ZM44.4174 22.6138C44.4375 22.9286 44.4375 23.2567 44.4375 23.5781C44.4375 33.4085 36.9509 44.7321 23.2701 44.7321C19.0513 44.7321 15.1406 43.5067 11.846 41.3973C12.4487 41.4643 13.0246 41.4911 13.6406 41.4911C17.1228 41.4911 20.3237 40.3125 22.875 38.317C19.6071 38.25 16.8616 36.1071 15.9241 33.1607C17.0692 33.3281 18.1004 33.3281 19.279 33.0268C15.8772 32.3371 13.3259 29.3438 13.3259 25.7277V25.6339C14.3103 26.1897 15.4688 26.5312 16.6808 26.5781C14.6116 25.1987 13.3661 22.875 13.3661 20.3906C13.3661 19.0045 13.7277 17.7388 14.3772 16.6406C18.0402 21.154 23.5446 24.1004 29.7121 24.4152C28.6607 19.3594 32.4375 15.2679 36.9777 15.2679C39.1205 15.2679 41.0491 16.1652 42.4085 17.6116C44.0893 17.2969 45.6964 16.6674 47.1295 15.8237C46.5737 17.5446 45.4085 18.9978 43.8616 19.9152C45.3616 19.7545 46.808 19.3393 48.1473 18.7567C47.1362 20.2433 45.8705 21.5625 44.4174 22.6138Z" fill="#1296DB"/>
</g>
<defs>
<clipPath id="clip0_527_325">
<rect width="60" height="60" fill="white"/>
</clipPath>
</defs>
</svg>
