<svg width="46" height="46" viewBox="0 0 46 46" fill="none" xmlns="http://www.w3.org/2000/svg">
<path d="M21.5969 17.3996L28.5987 12.1306C29.3985 12.6653 30.3309 12.9989 31.4004 12.9989C34.1335 12.9989 36.4004 10.7322 36.4004 7.99943C36.3318 5.26665 34.0649 3 31.3318 3C28.5987 3 26.3318 5.26665 26.3318 7.99943C26.3318 8.5341 26.4644 9.00023 26.5969 9.46635L19.5951 14.7308C20.3309 15.5306 20.9982 16.3988 21.5969 17.3996ZM38 18.1308C35.8656 18.1308 34.0649 19.4652 33.3336 21.3297H22.8629C22.9314 21.8644 22.9954 22.3945 22.9954 22.9977C22.9954 23.5964 22.9269 24.131 22.8629 24.6657H33.2651C33.9324 26.6673 35.7971 28.1342 38 28.1342C40.7331 28.1342 43 25.8676 43 23.1348C43 20.3335 40.7331 18.1308 38 18.1308ZM11.3272 14.6669C6.82541 14.6669 3.15539 18.2405 3 22.7052V23.2993C3.15539 27.7641 6.82998 31.3377 11.3272 31.3377C15.9296 31.3377 19.6636 27.6041 19.6636 23.0023C19.6636 18.4004 15.9296 14.6669 11.3272 14.6669ZM31.3318 43C34.0649 43 36.3318 40.7333 36.3318 38.0006C36.3318 35.2678 34.0649 33.0011 31.3318 33.0011C30.3309 33.0011 29.33 33.3347 28.5302 33.8694L21.5283 28.6004C20.9936 29.6012 20.3263 30.4649 19.5265 31.2692L26.5283 36.5382C26.4598 37.0043 26.3272 37.4705 26.3272 38.0051C26.3318 40.7333 28.5987 43 31.3318 43Z" fill="#00A609"/>
</svg>
